<?xml version="1.0" encoding="utf-8"?>
<!-- Generator: Adobe Illustrator 19.1.0, SVG Export Plug-In . SVG Version: 6.00 Build 0)  -->
<svg version="1.1" id="Layer_1" xmlns="http://www.w3.org/2000/svg" xmlns:xlink="http://www.w3.org/1999/xlink" x="0px" y="0px"
	 width="960px" height="397px" viewBox="469 -187 960 397" style="enable-background:new 469 -187 960 397;" xml:space="preserve">
<style type="text/css">
	.st0{fill:#EB4934;}
	.st1{fill:#FAD813;}
	.st2{fill:#9FD5BA;}
</style>
<path class="st0" d="M634.8,204.9c-64.6,0-165.8,0-165.8,0v-385.8c0,0,93,0,151,0c49.8,0,89.1,44,89.1,96.2
	c0,36.2-14.8,67-46.7,80.2v1.2c37.8,0.8,81,46.7,81,96.2C743.1,160.9,690.1,204.9,634.8,204.9z M592.8-120.2c-19.5,0-52.6,0-52.6,0
	v94.6c0,0,32.7,0,51,0c24.9,0,43.6-20.2,43.6-50.2C634.8-98.8,617.3-120.2,592.8-120.2z M611.9,34.7c-19.5,0-71.6,0-71.6,0v110.9
	c0,0,52.9,0,71.2,0c27.3,0,54.9-16.4,54.9-56.1C666.4,52.7,637.2,34.7,611.9,34.7z"/>
<path class="st1" d="M1327.8,208.8c-105.1,0-186.5-89.5-186.5-194.6c0-107.8,82.9-200.5,190.8-200.5c47.1,0,95,23.7,95,23.7v81
	c0,0-35-35.8-95-35.8c-67,0-116.8,58.8-116.8,125.4c0,68.9,47.9,131.6,116.8,131.6c40.5,0,69.7-16.4,96.9-35.4c0,0,0,53.7,0,78.2
	C1418.1,190.5,1377.2,208.8,1327.8,208.8z"/>
<polygon class="st2" points="1086.8,51.1 1086.8,-22.1 973.9,-22.1 973.9,-135 900.3,-135 900.3,-22.1 787.8,-22.1 787.8,51.1 
	900.3,51.1 900.3,164 973.9,164 973.9,51.1 "/>
</svg>
