<?xml version="1.0" encoding="UTF-8"?>
<svg width="19px" height="18px" viewBox="0 0 19 18" version="1.1" xmlns="http://www.w3.org/2000/svg" xmlns:xlink="http://www.w3.org/1999/xlink">
    <!-- Generator: Sketch 46.2 (44496) - http://www.bohemiancoding.com/sketch -->
    <title>Magnifying Glass</title>
    <desc>Created with Sketch.</desc>
    <defs></defs>
    <g id="Concept-8:-DISCOVER-+-FIND-Copy" stroke="none" stroke-width="1" fill="none" fill-rule="evenodd">
        <g id="concept-1" transform="translate(-964.000000, -100.000000)">
            <rect id="Nav-BG" fill="#FFFFFF" x="38" y="79" width="1280" height="180"></rect>
            <g id="Group" transform="translate(964.000000, 100.000000)">
                <g id="Magnifying-Glass">
                    <path d="M6.8642,0 C3.0732,0 0.0002,3.072 0.0002,6.862 C0.0002,10.652 3.0732,13.724 6.8642,13.724 C10.6552,13.724 13.7282,10.652 13.7282,6.862 C13.7282,3.072 10.6552,0 6.8642,0 M6.8642,1 C10.0982,1 12.7282,3.63 12.7282,6.862 C12.7282,10.094 10.0982,12.724 6.8642,12.724 C3.6302,12.724 1.0002,10.094 1.0002,6.862 C1.0002,3.63 3.6302,1 6.8642,1" id="Fill-1" fill="#000000"></path>
                    <path d="M17.6309,17.6037 L11.6589,11.0537" id="Stroke-3" stroke="#000000"></path>
                </g>
            </g>
        </g>
    </g>
</svg>